<svg id="Layer_1" data-name="Layer 1" xmlns="http://www.w3.org/2000/svg" width="48.7" height="66.3" viewBox="0 0 48.7 66.3"><path d="M19.5,61.1A16,16,0,0,1,12,59.5a15.6,15.6,0,0,1-5.2-4.3,17.9,17.9,0,0,1-3.2-6.3,24.6,24.6,0,0,1-1-7.2A26.6,26.6,0,0,1,4,32.9a28.5,28.5,0,0,1,3.9-7.8,31.7,31.7,0,0,1,5.8-6.3A28.6,28.6,0,0,1,21,14.5,22.9,22.9,0,0,1,29.2,13a15.8,15.8,0,0,1,7.4,1.6A16.2,16.2,0,0,1,41.9,19,20.6,20.6,0,0,1,45,25.3a24.8,24.8,0,0,1,1,7.3,25.4,25.4,0,0,1-1.4,8.6A31.3,31.3,0,0,1,40.8,49a32.2,32.2,0,0,1-5.9,6.3,31.8,31.8,0,0,1-7.3,4.3A22.4,22.4,0,0,1,19.5,61.1Zm.6-3.1a19.1,19.1,0,0,0,8.8-2.2A26.6,26.6,0,0,0,36.1,50a27.3,27.3,0,0,0,4.7-8.1,24.4,24.4,0,0,0,1.7-9.1A21.8,21.8,0,0,0,41,24.6a13.4,13.4,0,0,0-4.6-6.1,12.3,12.3,0,0,0-7.8-2.4,17.7,17.7,0,0,0-8.8,2.2A22.2,22.2,0,0,0,12.6,24a27.2,27.2,0,0,0-4.8,8.2A24.7,24.7,0,0,0,6,41.4a22.2,22.2,0,0,0,1.6,8.2,14.8,14.8,0,0,0,4.6,6.1A13.2,13.2,0,0,0,20.1,58Z" fill="#fff" stroke="#fff" stroke-miterlimit="10" stroke-width="1"/><path d="M32.4,63.8a8.4,8.4,0,0,1-4-.9,7.9,7.9,0,0,1-2.9-2.5,11.6,11.6,0,0,1-1.8-3.7,15.4,15.4,0,0,1-.6-4.3,16.9,16.9,0,0,1,.8-5,19.5,19.5,0,0,1,2.2-4.6,16.5,16.5,0,0,1,3.3-3.7,14.6,14.6,0,0,1,4.1-2.5,11.3,11.3,0,0,1,4.5-.9,7.4,7.4,0,0,1,4,1,8,8,0,0,1,2.9,2.6,11.1,11.1,0,0,1,1.8,3.6,20.2,20.2,0,0,1,.5,4.3,16.8,16.8,0,0,1-.7,5,23.5,23.5,0,0,1-2.2,4.5A19.8,19.8,0,0,1,41,60.4a13.3,13.3,0,0,1-4.1,2.5A11.3,11.3,0,0,1,32.4,63.8Zm.5-2.4a8.2,8.2,0,0,0,4.6-1.3,12.6,12.6,0,0,0,3.7-3.2,16.6,16.6,0,0,0,2.5-4.5,14.7,14.7,0,0,0,.9-5,11.7,11.7,0,0,0-.8-4.6,7.3,7.3,0,0,0-2.4-3.3,5.6,5.6,0,0,0-3.9-1.3,9,9,0,0,0-4.6,1.2,13,13,0,0,0-3.8,3.2,18.6,18.6,0,0,0-2.5,4.6,14.3,14.3,0,0,0-.9,5,12.9,12.9,0,0,0,.8,4.5A8,8,0,0,0,29,60.1,5.6,5.6,0,0,0,32.9,61.4Z" fill="#fff" stroke="#fff" stroke-miterlimit="10" stroke-width="1.34"/><path d="M37.1,16.5a6.4,6.4,0,0,1,2.4-4.1,30.1,30.1,0,0,1,6.2-3" fill="#fff" stroke="#fff" stroke-linecap="round" stroke-miterlimit="10" stroke-width="3.26"/><path d="M23.2,3.3s5.9-1.3,8.9-.6,6.2,4.1,6.6,5.2-3.8,2.6-6.5,2.2A14.2,14.2,0,0,1,23.2,3.3Z" fill="#fff" stroke="#fff" stroke-linecap="round" stroke-miterlimit="10" stroke-width="2.68"/><path d="M41.4,9.4S40,7.5,38.7,7.9" fill="#fff" stroke="#fff" stroke-linecap="round" stroke-miterlimit="10" stroke-width="1.09"/></svg>