<svg xmlns="http://www.w3.org/2000/svg" width="26" height="33.3" viewBox="0 0 26 33.3"><path fill="#580f1f" stroke="#580f1f" stroke-miterlimit="10" stroke-width="1.61" d="M9.8 30.6a8 8 0 0 1-3.6-.8 7.5 7.5 0 0 1-2.6-2.1 14 14 0 0 1-1.5-3 13.4 13.4 0 0 1-.5-3.5 15.4 15.4 0 0 1 .7-4.2 16.9 16.9 0 0 1 1.9-3.8 13.3 13.3 0 0 1 2.8-3 12.5 12.5 0 0 1 3.5-2.1 10.7 10.7 0 0 1 3.9-.7 8 8 0 0 1 3.6.8 7.5 7.5 0 0 1 2.6 2.1 14 14 0 0 1 1.5 3 13.4 13.4 0 0 1 .4 3.5 14.7 14.7 0 0 1-.6 4.2 16.2 16.2 0 0 1-1.9 3.7 13.8 13.8 0 0 1-2.8 3.1 17.5 17.5 0 0 1-3.5 2 10.9 10.9 0 0 1-3.9.8zm.3-1.6a8.7 8.7 0 0 0 4.2-1 10.2 10.2 0 0 0 3.4-2.8 10.9 10.9 0 0 0 2.3-3.9 11.2 11.2 0 0 0 .9-4.4 10.1 10.1 0 0 0-.8-3.9 6.5 6.5 0 0 0-2.2-3 6.3 6.3 0 0 0-3.8-1.1 8.7 8.7 0 0 0-4.2 1 10.2 10.2 0 0 0-3.4 2.8 15.8 15.8 0 0 0-2.4 3.9 14.2 14.2 0 0 0-.8 4.5A10 10 0 0 0 4 25a6.6 6.6 0 0 0 2.3 2.9 5.7 5.7 0 0 0 3.8 1.1z"/><path fill="#580f1f" stroke="#580f1f" stroke-miterlimit="10" stroke-width="1.61" d="M17.3 31.9a4.5 4.5 0 0 1-2-.4 5.3 5.3 0 0 1-1.4-1.2 9.8 9.8 0 0 1-.8-1.8 7.1 7.1 0 0 1-.3-2.1 6.7 6.7 0 0 1 .4-2.4 6.5 6.5 0 0 1 1.1-2.2 6.5 6.5 0 0 1 1.5-1.8 8.2 8.2 0 0 1 2-1.2 5.4 5.4 0 0 1 2.2-.4 3.8 3.8 0 0 1 1.9.5 4.1 4.1 0 0 1 1.4 1.2 5.1 5.1 0 0 1 .9 1.8 12.3 12.3 0 0 1 .2 2 9.9 9.9 0 0 1-.3 2.4 9.1 9.1 0 0 1-1.1 2.2 9.3 9.3 0 0 1-1.6 1.8 7.6 7.6 0 0 1-1.9 1.2 5.7 5.7 0 0 1-2.2.4zm.2-1.1a4 4 0 0 0 2.2-.6 6.9 6.9 0 0 0 1.8-1.6 5.3 5.3 0 0 0 1.2-2.2 6.9 6.9 0 0 0 .5-2.4 7.8 7.8 0 0 0-.4-2.2 4.8 4.8 0 0 0-1.2-1.6 2.9 2.9 0 0 0-1.9-.6 4.3 4.3 0 0 0-2.2.6 6.5 6.5 0 0 0-1.8 1.5 9.4 9.4 0 0 0-1.2 2.2 6.7 6.7 0 0 0-.4 2.4 5.1 5.1 0 0 0 .4 2.2 3.1 3.1 0 0 0 1.1 1.6 3.2 3.2 0 0 0 1.9.7z"/><path fill="none" stroke="#580f1f" stroke-linecap="round" stroke-miterlimit="10" stroke-width="1.57" d="M18.2 8.5a3.6 3.6 0 0 1 1.2-2 19.8 19.8 0 0 1 3-1.4"/><path fill="none" stroke="#580f1f" stroke-linecap="round" stroke-miterlimit="10" stroke-width="1.46" d="M11.1 1.9a12.6 12.6 0 0 1 4.3-.2 6.2 6.2 0 0 1 3.2 2.5c.2.5-1.8 1.3-3.1 1.1a7.6 7.6 0 0 1-4.4-3.4z"/><path fill="none" stroke="#580f1f" stroke-linecap="round" stroke-miterlimit="10" stroke-width=".52" d="M20.3 5.1s-.7-.9-1.3-.7"/></svg>