<svg xmlns="http://www.w3.org/2000/svg" width="204.3" height="265.6" viewBox="0 0 204.3 265.6"><g stroke="#580f1f" stroke-miterlimit="10"><path fill="#580f1f" stroke-width="4" d="M79.6 244.7c-11.4 0-21.3-2.1-29.7-6.4A59.4 59.4 0 0 1 28.8 221a74.3 74.3 0 0 1-12.5-24.8 99.2 99.2 0 0 1-4.1-29 111.1 111.1 0 0 1 5.5-34.8 123.8 123.8 0 0 1 15.6-31.3 122.1 122.1 0 0 1 23.4-25.2 107.2 107.2 0 0 1 29-17 90.5 90.5 0 0 1 32.5-6.1c11.4 0 21.3 2.2 29.8 6.5a63 63 0 0 1 21 17.6 76 76 0 0 1 12.4 25 102.6 102.6 0 0 1 4 29 108.3 108.3 0 0 1-5.5 34.5 119.4 119.4 0 0 1-38.9 56.3 110 110 0 0 1-29 16.9 87.5 87.5 0 0 1-32.4 6.1zm2.4-12.5a73.7 73.7 0 0 0 35.2-8.7 96.6 96.6 0 0 0 28.5-23 107.6 107.6 0 0 0 19-32.4 100.7 100.7 0 0 0 6.8-36.4 87.1 87.1 0 0 0-6-32.6 55.5 55.5 0 0 0-18.3-24.4c-8.3-6.3-18.7-9.4-31.4-9.4a74.1 74.1 0 0 0-35.1 8.6 94.3 94.3 0 0 0-28.6 23 116.7 116.7 0 0 0-19.2 32.5 102 102 0 0 0-6.9 36.7 87.1 87.1 0 0 0 6.1 32.6A55.2 55.2 0 0 0 50.7 223c8.2 6.1 18.7 9.2 31.3 9.2z"/><path fill="#580f1f" stroke-width="5.33" d="M131.2 255.6a33.3 33.3 0 0 1-16.1-3.7 34.6 34.6 0 0 1-11.7-10.1 48.1 48.1 0 0 1-7-14.6 60.4 60.4 0 0 1-2.4-17.1 64.9 64.9 0 0 1 3.2-20 70.3 70.3 0 0 1 8.8-18.3 71.3 71.3 0 0 1 13.1-14.8 61.9 61.9 0 0 1 16.2-9.9 47 47 0 0 1 18-3.6 33.3 33.3 0 0 1 16.1 3.8 33.8 33.8 0 0 1 11.6 10.3 48.1 48.1 0 0 1 7 14.6 64.7 64.7 0 0 1 2.2 17.1 64 64 0 0 1-3.1 19.8 67.8 67.8 0 0 1-8.7 18.2 73.8 73.8 0 0 1-13 14.8 59.3 59.3 0 0 1-16.2 9.9 46.6 46.6 0 0 1-18 3.6zm2.1-9.8a35.5 35.5 0 0 0 18.2-4.9 50.9 50.9 0 0 0 14.8-13 63.4 63.4 0 0 0 10-18 57.6 57.6 0 0 0 3.6-19.8 51.2 51.2 0 0 0-3.2-18.2 32.3 32.3 0 0 0-9.6-13.4c-4.1-3.4-9.4-5-15.8-5a36.7 36.7 0 0 0-18.3 4.7 49.4 49.4 0 0 0-14.9 12.9 65.3 65.3 0 0 0-10 18.1 58.3 58.3 0 0 0-3.6 20 51.2 51.2 0 0 0 3.2 18.2 31.3 31.3 0 0 0 9.6 13.3c4.3 3.4 9.6 5.1 16 5.1z"/><g fill="none" stroke-linecap="round"><path stroke-width="13" d="M149.8 67s1.2-10.5 9.8-16.6 24.6-11.8 24.6-11.8"/><path stroke-width="10.67" d="M94.4 14.2S118 9 130 12s24.5 16.3 26.2 20.6-15 10.3-25.8 8.6-27.4-11.6-36-27z"/><path stroke-width="4.33" d="M167 38.6s-5.7-7.7-10.8-6"/></g></g></svg>